<?xml version="1.0" encoding="UTF-8" standalone="no"?>
<!-- Created with Inkscape (http://www.inkscape.org/) -->

<svg
   width="227.76392mm"
   height="72.756134mm"
   viewBox="0 0 227.76391 72.756134"
   version="1.1"
   id="svg5"
   xml:space="preserve"
   inkscape:version="1.2.1 (9c6d41e410, 2022-07-14)"
   sodipodi:docname="logo_black.svg"
   xmlns:inkscape="http://www.inkscape.org/namespaces/inkscape"
   xmlns:sodipodi="http://sodipodi.sourceforge.net/DTD/sodipodi-0.dtd"
   xmlns="http://www.w3.org/2000/svg"
   xmlns:svg="http://www.w3.org/2000/svg"><sodipodi:namedview
     id="namedview7"
     pagecolor="#ffffff"
     bordercolor="#000000"
     borderopacity="0.25"
     inkscape:showpageshadow="2"
     inkscape:pageopacity="0.0"
     inkscape:pagecheckerboard="0"
     inkscape:deskcolor="#d1d1d1"
     inkscape:document-units="mm"
     showgrid="false"
     showguides="false"
     inkscape:zoom="1"
     inkscape:cx="328.5"
     inkscape:cy="356"
     inkscape:window-width="1920"
     inkscape:window-height="1060"
     inkscape:window-x="0"
     inkscape:window-y="0"
     inkscape:window-maximized="1"
     inkscape:current-layer="g912"><sodipodi:guide
       position="-146.90294,146.93277"
       orientation="1,0"
       id="guide888"
       inkscape:locked="false" /></sodipodi:namedview><defs
     id="defs2" /><g
     id="g912"
     transform="translate(-0.21373048,-139.92678)"><g
       id="g930"
       style="fill:#333333"><rect
         style="fill:#333333;stroke-width:0.277369"
         id="rect357-8"
         width="37.212753"
         height="7.1330285"
         x="173.54501"
         y="186.32768" /><ellipse
         style="fill:#333333;stroke-width:0.162333"
         id="path422-0"
         cx="210.72649"
         cy="189.89519"
         rx="3.3562949"
         ry="3.5669825" /><rect
         style="fill:#333333;stroke-width:0.277369"
         id="rect576"
         width="37.212753"
         height="7.1330285"
         x="173.54501"
         y="186.32768" /><ellipse
         style="fill:#333333;stroke-width:0.162333"
         id="ellipse578"
         cx="210.72649"
         cy="189.89519"
         rx="3.3562949"
         ry="3.5669825" /><rect
         style="fill:#333333;stroke:none"
         id="rect580"
         width="37.212753"
         height="7.1330285"
         x="173.54501"
         y="186.32768" /><ellipse
         style="fill:#333333;stroke:none;stroke-width:0.162333"
         id="ellipse582"
         cx="210.72649"
         cy="189.89519"
         rx="3.3562949"
         ry="3.5669825" /><rect
         style="fill:#333333;stroke-width:0.277506"
         id="rect580-4"
         width="37.214111"
         height="7.1398344"
         x="175.27274"
         y="158.02454" /><ellipse
         style="fill:#333333;stroke-width:0.162425"
         id="ellipse582-0"
         cx="175.29956"
         cy="161.59404"
         rx="3.3573849"
         ry="3.5698752" /></g><path
       d="m 148.56004,207.29925 m 32.65639,-0.21976 c -6.88814,-1.85245 -10.08389,-6.93628 -10.08389,-16.04155 v -4.70692 h 26.20225 c 28.3947,0 27.21128,-0.19311 27.7291,0.38347 1.44202,1.60565 1.34504,5.11572 -0.17758,6.14948 -0.66457,0.45119 -2.02367,0.48261 -23.80064,0.55031 l -23.09583,0.0718 0.17349,0.98654 c 0.43884,2.49541 1.90095,4.45308 4.07874,5.46113 1.37117,0.63469 39.35167,1.01878 42.53579,0.43017 11.42218,-2.1115 11.96539,-17.8413 0.7173,-20.77105 -1.32879,-0.34611 -4.33433,-0.40559 -20.49596,-0.40559 -16.01727,0 -19.18208,-0.0616 -20.51576,-0.3995 -16.9803,-4.30181 -17.95415,-27.90221 -1.40089,-33.94891 l 1.94061,-0.70888 21.69584,-0.084 c 26.17786,-0.10135 25.7264,-0.16048 29.79618,3.9002 3.30073,3.29337 4.19288,6.01015 4.19886,12.78643 l 0.004,4.43177 H 214.5158 c -28.39471,0 -27.4749,0.046 -28.43746,-1.42303 -1.2099,-1.84654 -0.60396,-4.2572 1.302,-5.17986 1.09852,-0.53178 1.49558,-0.54086 23.65561,-0.54086 h 22.53834 l -0.003,-0.8599 c -0.006,-2.00638 -1.75406,-6.05428 -4.0984,-6.09306 -1.76772,-0.0292 -39.53018,-0.20353 -42.40053,0.0638 -11.85825,1.10451 -11.93912,17.84814 -0.7173,20.77106 1.32835,0.34599 4.32225,0.40558 20.37693,0.40558 20.67489,0 20.82537,0.0104 24.10459,1.67422 14.70781,7.46226 12.13007,29.74901 -3.83214,33.13211 -2.63674,0.55884 -43.69688,0.52751 -45.78828,-0.0349 z"
       style="fill:#333333;stroke-width:0.264583"
       id="path986"
       transform="translate(-13.229168)" /><path
       style="fill:#333333;stroke-width:0.264583"
       d="m 109.8521,210.24559 c -36.244512,-4.60268 -42.932837,-53.51849 -9.12811,-66.75956 27.24465,-10.67154 55.19038,16.44771 45.16006,43.82451 l -0.79403,2.16723 2.9656,5.2411 c 1.63108,2.8826 3.89758,6.84845 5.03667,8.81298 5.58421,6.75433 -6.87125,3.96726 -9.85234,3.96875 h -12.15172 l -3.90518,-6.68073 c -2.14785,-3.6744 -3.94694,-6.72786 -3.99798,-6.78547 -0.051,-0.0576 -0.77989,0.20081 -1.61966,0.57428 -11.91468,5.2987 -25.835052,-1.87192 -28.556452,-14.70991 -3.774408,-17.80547 16.484282,-31.36296 31.736852,-21.23888 7.1784,4.76475 11.18534,15.76988 8.28838,22.7643 l -0.32256,0.77879 -1.28176,-2.234 c -4.6437,-8.09359 -7.90417,-13.22107 -9.14521,-14.38191 -6.43491,-6.0191 -17.44886,-3.88561 -21.24674,4.11566 -6.689652,14.09358 10.85114,26.52302 21.871,15.49781 1.14214,-1.14269 2.10308,-2.03975 2.13542,-1.99346 0.0323,0.0463 0.95269,1.63196 2.04523,3.52373 3.78096,6.54693 6.89058,11.8652 7.52851,12.87575 l 0.64066,1.01487 h 3.96543 c 2.18099,0 3.96543,-0.0648 3.96543,-0.14402 0,-0.0792 -1.23286,-2.25211 -2.73968,-4.82865 -1.50683,-2.57654 -2.87513,-4.94297 -3.04068,-5.25875 -0.25337,-0.48328 -0.13529,-0.92286 0.74632,-2.77812 10.13967,-21.3382 -9.79184,-44.99739 -32.39067,-38.44851 -29.32403,8.49778 -25.38569,50.93144 5.02497,54.14147 2.55138,0.26931 3.28384,0.22937 8.19037,-0.44653 l 1.05833,-0.14579 1.5875,2.8283 c 0.87313,1.55556 1.5875,2.95173 1.5875,3.1026 0,0.91456 -9.65729,2.07255 -13.36146,1.60216 z M 1.6375362,189.90581 V 172.31102 H 12.220869 22.804202 v 7.01146 7.01145 h 15.623556 c 17.241353,0 16.676134,-0.0531 17.724654,1.6665 0.97591,1.60054 0.522946,3.81765 -0.989375,4.84265 -0.708557,0.48024 -1.586815,0.50551 -19.98523,0.57512 l -19.244104,0.0728 -0.07048,-7.08426 -0.07048,-7.23597 -3.515561,-7.5e-4 -3.4958961,-0.005 v 10.73313 10.7233 H 31.390137 c 15.607115,0 23.043063,-0.0913 24.010938,-0.2949 8.491738,-1.78607 11.54603,-12.0977 5.325808,-17.98053 -3.14281,-2.97234 -4.231113,-3.15234 -19.071119,-3.15428 l -11.707812,-0.002 v -3.42782 -3.42782 l 12.898437,-0.0779 c 12.810419,-0.0774 12.908291,-0.0821 14.342438,-0.69102 9.151356,-3.88556 9.055849,-16.48971 -0.151288,-19.96564 l -1.557296,-0.72824 -23.349479,-0.0497 -23.3494781,-0.003 v 3.61986 3.5731 l 22.8203121,0.0718 c 21.912207,0.069 22.849805,0.0918 23.561439,0.57416 2.077442,1.40802 1.990783,4.6801 -0.15866,5.99069 -0.825063,0.50307 -1.528712,0.5165 -27.106946,0.51747 l -26.2598948,9.9e-4 V 154.58391 144.00058 H 28.715004 c 26.083247,0 27.152373,0.0192 29.117523,0.52176 13.201721,3.37643 17.739836,20.04478 8.055665,29.58818 l -1.676698,1.65233 1.988235,2.04828 c 9.303276,9.58422 4.639749,25.84108 -8.367202,29.16769 -1.96515,0.5026 -3.034276,0.52176 -29.117523,0.52176 H 1.6375362 Z"
       id="path959"
       sodipodi:nodetypes="ssscscccsscssscssssssscsssscssscsssccccccsssscccccccscsccccssscccccccsscccscscssscc" /><g
       id="g894"
       transform="translate(-2.6458334)"
       style="fill:#333333"><path
         id="path956"
         style="fill:#333333;stroke-width:0.277085"
         d="m 19.10265,186.33455 h 37.209423 v 7.11904 H 19.10265 Z" /><path
         id="path953"
         style="fill:#333333;stroke-width:0.162167"
         d="m 59.636737,189.89507 a 3.3559945,3.5599885 0 0 1 -3.355994,3.55998 3.3559945,3.5599885 0 0 1 -3.355995,-3.55998 3.3559945,3.5599885 0 0 1 3.355995,-3.55999 3.3559945,3.5599885 0 0 1 3.355994,3.55999 z" /><path
         id="path950"
         style="fill:#333333;stroke-width:0.277234"
         d="m 19.106808,158.03654 h 37.210357 v 7.12653 H 19.106808 Z" /><path
         id="path947"
         style="fill:#333333;stroke-width:0.162254"
         d="m 59.641876,161.60081 a 3.3560786,3.5637307 0 0 1 -3.356079,3.56374 3.3560786,3.5637307 0 0 1 -3.356079,-3.56374 3.3560786,3.5637307 0 0 1 3.356079,-3.56373 3.3560786,3.5637307 0 0 1 3.356079,3.56373 z" /></g></g><g
     inkscape:label="Layer 1"
     inkscape:groupmode="layer"
     id="layer1"
     transform="translate(-0.21373048,-139.92678)" /></svg>
